<?xml version="1.0" encoding="UTF-8" standalone="no"?>
<svg viewBox="0 0 14 13.000004" xmlns="http://www.w3.org/2000/svg">
<g transform="translate(-1238.46631,-175.72428)">
<path d="m1238.4663,175.72427h14v13h-14z" fill="#fff"/>
<path d="m1245.4349,175.72428c-2.1171,0-3.8402,1.72313-3.8402,3.8402s1.7231,3.84019 3.8402,3.84019 3.8402-1.72311 3.8402-3.84019-1.7231-3.8402-3.8402-3.8402zm-3.6199,7.46005c-1.0703.21794-1.8572,1.16113-1.8571,2.29782v3.24213h11.0169v-3.24213c.0001-1.13669-.7866-2.07988-1.8571-2.29782-.8489,1.07827-2.1735,1.79419-3.6514,1.79419s-2.7711-.71592-3.6198-1.79419c-.01-.007-.026.007-.032,0h.0005z" fill="#999"/>
</g>
</svg>
